<?xml version="1.0" encoding="UTF-8"?> <svg xmlns="http://www.w3.org/2000/svg" xmlns:xlink="http://www.w3.org/1999/xlink" fill="none" height="36" viewBox="0 0 159 36" width="159"><clipPath id="a"><path d="m.382324.185059h158v35h-158z"></path></clipPath><g clip-path="url(#a)" fill="#fff"><path d="m.710353 14.8782c-.103967-.0013-.206966.0201-.301768.0628-.094801.0427-.179106.1057-.246995.1844-.0678897.0788-.1177178.1714-.1459861.2715-.0282683.1-.0342916.2051-.01764694.3077l3.02412304 18.3584c.03768.2247.15331.4289.32658.5768.17328.1478.39312.2299.6209.2318h14.50794c.1708.0022.3366-.057.4674-.1668.1307-.1099.2177-.263.245-.4316l3.0312-18.5615c.0167-.1026.0107-.2076-.0176-.3077-.0283-.1-.0781-.1927-.146-.2715-.0679-.0787-.1522-.1416-.247-.1843-.0948-.0428-.1978-.0642-.3018-.0628zm12.734047 13.2684h-4.63055l-1.25381-6.5469h7.00636z" opacity=".6"></path><path d="m21.2523 21.5996h-6.6859l-1.122 6.5469h-4.63057l-5.46764 6.4935c.1733.1499.39425.2332.62335.2351h14.51146c.1708.0022.3367-.057.4674-.1668.1308-.1099.2177-.263.245-.4316z"></path><path d="m57.1642 2.0443c0 .92611.431 1.65988 2.1087 1.98402 1.0009.21015 1.2111.3562 1.2111.71239 0 .3562-.2102.5343-.9154.5343-.8529-.01552-1.6887-.24191-2.4329-.65897v1.50672c.7484.37439 1.5789.55445 2.4151.52361 1.756 0 2.4506-.78363 2.4506-1.94484m0 0c0-1.09709-.5806-1.61358-2.2227-1.96621-.9047-.19947-1.1256-.39894-1.1256-.68746 0-.3562.3242-.51649.9262-.51649.7355.02294 1.4578.20139 2.1193.52361v-1.42479c-.6501-.302026-1.3598-.454186-2.0766-.445247-1.6207 0-2.4613.712395-2.4613 1.859357"></path><path d="m79.7114.28125v6.26552h1.3358v-4.77661l.5628 1.26806 1.8914 3.50855h1.6777v-6.26552h-1.3358v4.04285l-.5058-1.1719-1.5174-2.87095z"></path><path d="m71.2197.28125h-1.4604v6.26908h1.4604z"></path><path d="m68.0746 4.69802c0-1.09709-.5806-1.61358-2.2226-1.96621-.9048-.19947-1.1256-.39894-1.1256-.68746 0-.3562.3241-.51649.9261-.51649.7355.02294 1.4578.20139 2.1194.52361v-1.42479c-.6494-.300278-1.3578-.451206-2.0731-.441686-1.6207 0-2.4613.712396-2.4613 1.859356 0 .92611.431 1.65988 2.1087 1.98402 1.0009.21016 1.211.3562 1.211.71239 0 .3562-.2101.5343-.9154.5343-.8529-.01552-1.6887-.24191-2.4328-.65896v1.50671c.7483.37439 1.5788.55445 2.415.52361 1.7561 0 2.4506-.78363 2.4506-1.94484"></path><path d="m45.8228.28125v6.26552h3.0027l.4702-1.35355h-2.0018v-4.91197z"></path><path d="m39.896.28125v1.35355h1.6243v4.91197h1.4675v-4.91197h1.7347v-1.35355z"></path><path d="m37.7551.28125h-1.9235l-2.1871 6.26908h1.6706l.3099-1.06859c.7628.22382 1.5738.22382 2.3366 0l.3099 1.06859h1.6706zm-.9618 4.08203c-.2712.00034-.5411-.03805-.8014-.11399l.8014-2.7356.8015 2.7356c-.257.07494-.5232.11331-.7908.11399z"></path><path d="m53.9977.28125h-1.9234l-2.1871 6.26908h1.6706l.3099-1.06859c.7628.22382 1.5738.22382 2.3366 0l.3099 1.06859h1.6706zm-.9617 4.08203c-.2712.00034-.5411-.03805-.8015-.11399l.8015-2.7356.8014 2.7356c-.2615.07628-.5326.11466-.805.11399z"></path><path d="m76.4772.28125h-1.9234l-2.1871 6.26908h1.6706l.3099-1.06859c.7628.22382 1.5738.22382 2.3366 0l.3099 1.06859h1.6706zm-.9653 4.08203c-.2712.00034-.5411-.03805-.8014-.11399l.8014-2.73916.8015 2.7356c-.2602.07715-.5301.11673-.8015.11755z"></path><path d="m41.6269 14.2798c4.1995 0 6.237 2.0695 6.237 5.3928 0 2.4934-1.1292 4.0108-3.448 4.5772 3.0419.5022 4.5451 2.1621 4.5451 5.0793 0 3.2913-2.2263 5.5496-6.8319 5.5496h-8.4953v-20.5989zm-5.172 2.6964v6.1409h4.7944c2.6644 0 3.7614-1.2218 3.7614-3.2058s-1.1897-2.9458-3.7614-2.9458zm0 8.652v6.4116h5.7668c2.6964 0 3.9182-.9724 3.9182-3.0419 0-2.1942-1.1612-3.3839-3.9787-3.3839z"></path><path d="m53.5703 13.1827c.2516-.018.5041.0183.7405.1065.2363.0881.4509.226.6293.4044s.3163.393.4045.6293c.0881.2364.1244.4889.1064.7405 0 .4988-.1981.9772-.5509 1.3299-.3527.3527-.831.5509-1.3298.5509s-.9772-.1982-1.3299-.5509-.5509-.8311-.5509-1.3299c-.018-.2516.0183-.5041.1065-.7405.0881-.2363.2261-.4509.4044-.6293.1784-.1784.393-.3163.6294-.4044.2363-.0882.4889-.1245.7405-.1065zm-1.3785 6.0162h2.6964v15.6727h-2.6964z"></path><path d="m65.1824 32.2426c.5699-.017 1.1367-.091 1.6919-.2208v2.6002c-.5906.1688-1.2023.2528-1.8166.2494-3.3554 0-4.9868-1.9734-4.9868-4.8906v-8.2745h-2.5397v-2.4934h2.5397v-3.334h2.6181v3.3233h4.1675v2.4934h-4.1675v8.2246c0 1.3785.8157 2.3224 2.4934 2.3224z"></path><path d="m77.9874 35.1849c-2.2868 0-4.0429-1.0329-4.9868-3.0704v2.757h-2.6964v-22.2196h2.7142v9.368c1.0045-2.0696 2.8852-3.1346 5.2967-3.1346 4.1675 0 6.2691 3.5406 6.2691 8.1498-.0143 4.4204-2.2085 8.1498-6.5968 8.1498zm-.4096-13.7919c-2.4222 0-4.5594 1.5387-4.5594 5.0152v1.2538c0 3.4801 1.9734 5.0153 4.2744 5.0153 3.0419 0 4.6092-2.0054 4.6092-5.6422-.0285-3.7614-1.5317-5.6421-4.3242-5.6421z"></path><path d="m87.3911 19.1987h2.6964v9.482c0 2.8211 1.1292 4.0749 3.6974 4.0749 2.4933 0 4.2316-1.6599 4.2316-4.8265v-8.7304h2.6965v15.6727h-2.6965v-2.5682c-.4801.8898-1.1963 1.6299-2.0698 2.139-.8735.509-1.8705.7672-2.8814.7462-3.6047 0-5.6742-2.4933-5.6742-6.8033z"></path><path d="m115.852 34.4655c-.941.5022-2.383.7124-3.826.7124-5.578 0-8.193-3.3839-8.193-8.1926 0-4.7338 2.601-8.1177 8.193-8.1177 1.289-.0366 2.568.2281 3.737.7729v2.4934c-1.114-.5207-2.334-.7744-3.562-.7409-4.075 0-5.735 2.5718-5.735 5.6102 0 3.0383 1.706 5.5958 5.813 5.5958 1.212.032 2.419-.1587 3.562-.5628z"></path><path d="m118.925 34.8715v-22.2196h2.697v13.8917l6.739-7.3341h3.512l-7.37 7.6903 7.68 7.9717h-3.669l-6.896-7.3341v7.3341z"></path><path d="m141.116 35.1848c-5.863 0-8.431-3.3839-8.431-8.1925 0-4.7339 2.632-8.1178 7.398-8.1178 4.827 0 6.768 3.3554 6.768 8.1178v1.2217h-11.441c.378 2.6644 2.102 4.3884 5.799 4.3884 1.626-.0015 3.239-.2884 4.766-.8478v2.4934c-1.286.6875-3.259.9368-4.859.9368zm-5.735-9.2611h8.745c-.157-2.9137-1.475-4.5772-4.167-4.5772-2.857-.0142-4.296 1.8344-4.578 4.5629z"></path><path d="m156.255 32.2426c.57-.017 1.137-.091 1.692-.2208v2.6002c-.591.1688-1.202.2528-1.817.2494-3.355 0-4.986-1.9734-4.986-4.8906v-8.2745h-2.54v-2.4934h2.54v-3.334h2.632v3.3233h4.168v2.4934h-4.168v8.2246c.004 1.3785.812 2.3224 2.479 2.3224z"></path></g></svg> 