<?xml version="1.0" encoding="UTF-8"?> <svg xmlns="http://www.w3.org/2000/svg" fill="none" height="33" viewBox="0 0 115 33" width="115"><g fill="#fff"><path d="m47.0424 21.306h-1.5269c-.1021 0-.1983.0481-.2604.1303-.8867 1.3105-2.3846 2.1721-4.0878 2.1721-2.7252 0-4.9324-2.2082-4.9324-4.9323 0-2.7242 2.2082-4.9324 4.9324-4.9324.8072-.0002 1.6021.1979 2.3149.5768.7127.3789 1.3215.9271 1.7729 1.5963.0621.0802.1583.1303.2604.1303h1.5269c.0559-.0006.1106-.0153.1592-.0428.0486-.0274.0895-.0667.1188-.1143.0293-.0475.0461-.1016.0488-.1574.0028-.0557-.0087-.1113-.0332-.1614-.5751-1.1425-1.4564-2.1028-2.5455-2.7736-1.089-.6709-2.3431-1.026-3.6222-1.0256-3.8132 0-6.9061 3.0918-6.9061 6.9061 0 3.8142 3.0919 6.9061 6.9061 6.9061 1.2789.0001 2.5328-.3551 3.6217-1.0259 1.0888-.6708 1.9699-1.631 2.545-2.7733.024-.0461.0361-.0962.0361-.1473-.0006-.0872-.0355-.1706-.0972-.2322-.0618-.0615-.1453-.0962-.2325-.0964zm4.6038-11.8384c0 1.7533-2.631 1.7533-2.631 0 0-1.75333 2.631-1.75333 2.631 0zm-.3277 15.4553v-12.8243h-1.9737v12.8243c.0005.087.0353.1703.0968.2318.0616.0615.1448.0963.2318.0968h1.3155c.087-.0005.1703-.0353.2318-.0968s.0973-.1448.0978-.2318zm8.5563-13.1449c-1.9898.0942-3.5798 1.045-4.6088 2.4967v-1.8475c-.0005-.087-.0353-.1703-.0968-.2318s-.1448-.0963-.2318-.0968h-1.3145c-.087.0005-.1703.0353-.2318.0968s-.0963.1448-.0968.2318v12.4957c0 .1803.1463.3286.3286.3286h1.3155c.087-.0005.1703-.0353.2318-.0968s.0963-.1448.0968-.2318v-6.2478c0-2.605 2.0339-4.7521 4.6038-4.9214.0873-.0002.171-.0351.2328-.0968.0617-.0618.0965-.1455.0968-.2328v-1.3185c-.0005-.0861-.0346-.1687-.0951-.2301-.0604-.0613-.1424-.0967-.2285-.0985zm13.1048 9.518h-1.5269c-.1022 0-.1984.0481-.2605.1303-.8866 1.3105-2.3845 2.1721-4.0877 2.1721-2.7252 0-4.9324-2.2082-4.9324-4.9324 0-2.7241 2.2082-4.9323 4.9324-4.9323 1.7012 0 3.2.8616 4.0877 2.1741.0621.0802.1583.1303.2605.1303h1.5369c.0872-.0003.1708-.035.2325-.0965.0617-.0616.0966-.145.0972-.2322-.0001-.0512-.0125-.1017-.0361-.1472-.5751-1.1424-1.4562-2.1026-2.545-2.7734-1.0889-.6708-2.3428-1.026-3.6217-1.0258-3.8142 0-6.9061 3.0918-6.9061 6.906 0 3.8143 3.0919 6.9061 6.9061 6.9061 1.2789.0002 2.5328-.355 3.6217-1.0258 1.0888-.6709 1.9699-1.631 2.545-2.7734.024-.046.0361-.0961.0361-.1472-.0006-.0872-.0355-.1706-.0972-.2322-.0617-.0615-.1453-.0962-.2325-.0965zm3.9475-13.48254h-1.3155c-.087.00053-.1703.03532-.2318.09683-.0615.06152-.0963.1448-.0968.23179v16.77182c.0005.087.0353.1703.0968.2318s.1448.0963.2318.0968h1.3155c.087-.0005.1703-.0353.2318-.0968s.0963-.1448.0968-.2318v-16.7628c-.0005-.08699-.0353-.17027-.0968-.23179-.0615-.06151-.1448-.09631-.2318-.09683zm9.2175 3.94744c-3.8142 0-6.9061 3.0919-6.9061 6.9061 0 3.8143 3.0919 6.9061 6.9061 6.9061 1.2789.0002 2.5328-.355 3.6216-1.0258 1.0889-.6709 1.97-1.631 2.5451-2.7734.1132-.2184-.0471-.4789-.2926-.4759h-1.5359c-.1052 0-.2034.0501-.2655.1353-.8867 1.3065-2.3845 2.1661-4.0827 2.1661-2.5008 0-4.5667-1.8615-4.8893-4.2751h11.4557c.0842-.0006.1649-.0333.2257-.0914.0609-.0581.0974-.1372.1019-.2212l.0101-.3457c0-3.8142-3.0919-6.9061-6.9051-6.9061zm-4.754 5.5906c.5761-2.0839 2.4847-3.6068 4.754-3.6068s4.1779 1.5329 4.754 3.6068zm30.7604-9.86566c-2.631 0-2.631 3.94746 0 3.94746s2.631-3.94746 0-3.94746zm1.643 4.60376v12.8243c-.001.087-.035.1703-.097.2318-.061.0615-.145.0963-.232.0968h-2.631c-.087-.0005-.17-.0353-.231-.0968-.062-.0615-.097-.1448-.097-.2318v-12.8243zm-11.88 13.4906c3.225 0 5.929-2.2092 6.691-5.1949.005-.022.008-.0445.008-.0671 0-.087-.035-.1703-.097-.2318-.061-.0615-.144-.0963-.231-.0969h-2.784c-.063.0004-.124.0187-.177.0527-.053.0341-.095.0826-.121.1397-.573 1.2444-1.829 2.109-3.289 2.109-.649.0002-1.286-.1745-1.845-.5056-.5583-.3312-1.0174-.8066-1.3289-1.3763-.3114-.5697-.4638-1.2128-.441-1.8618.0227-.6489.2198-1.2797.5704-1.8262s.8419-.9886 1.4225-1.2798c.58-.2911 1.228-.4207 1.876-.3751.648.0457 1.271.2649 1.805.6345.534.3697.958.8763 1.229 1.4666.026.057.068.1052.121.1391s.114.052.177.0523h2.784c.087-.0006.17-.0354.231-.0969.062-.0615.097-.1448.097-.2318 0-.0222-.003-.0444-.008-.0661-.761-2.9856-3.466-5.1958-6.691-5.1958-3.8127 0-6.9056 3.0918-6.9056 6.9061 0 3.8142 3.0929 6.9061 6.9056 6.9061z"></path><path d="m15.7634 20.3539c2.1083 0 3.8175-1.7092 3.8175-3.8176s-1.7092-3.8175-3.8175-3.8175c-2.1084 0-3.8176 1.7091-3.8176 3.8175s1.7092 3.8176 3.8176 3.8176z"></path><path d="m15.7632.505596c-7.47015 0-13.74605 5.109654-15.526183 12.023204-.016625.0621-.025547.1259-.026568.1902 0 .4195.341203.7635.763512.7635h6.464679c.14633.0005.28965-.0415.41254-.121.12288-.0794.22004-.1928.27966-.3265 0 0 .00979-.0182.01398-.0279 1.33265-2.8751 4.24268-4.87058 7.62118-4.87058 4.6384 0 8.3986 3.75888 8.3986 8.39728s-3.7588 8.3972-8.3972 8.3972c-3.3771 0-6.28713-1.9955-7.62118-4.8705-.0042-.0098-.01399-.028-.01399-.028-.12305-.2713-.39434-.4475-.69219-.4475h-6.464682c-.422309 0-.763511.3412-.763511.7635.000727.0643.009654.1282.026568.1902 1.780125 6.9136 8.057425 12.0232 15.526185 12.0232 8.8545-.0014 16.0449-7.1778 16.0449-16.0309 0-8.85315-7.1779-16.031-16.031-16.031z"></path></g></svg> 