<svg xmlns="http://www.w3.org/2000/svg" viewBox="0 0 29 29"><defs><style>.cls-1{fill:#1d63ed}</style></defs><g id="Layer_2" data-name="Layer 2"><g id="Layer_1-2" data-name="Layer 1"><path class="cls-1" d="M20.35 9.59a2.34 2.34 0 00-.55-.87 2.5 2.5 0 00-.87-.56 4.35 4.35 0 00-1.39-.26c-.79 0-1 0-3-.05s-2.24 0-3 0a4.15 4.15 0 00-1.39.25 2.5 2.5 0 00-.87.56 2.46 2.46 0 00-.56.86A4.5 4.5 0 008.4 11c0 .79 0 1-.05 3s0 2.24 0 3a3.85 3.85 0 00.26 1.39 2.23 2.23 0 00.55.86 2.39 2.39 0 00.87.57 4.35 4.35 0 001.39.26h6a3.85 3.85 0 001.39-.26 2.14 2.14 0 00.86-.56 2.27 2.27 0 00.57-.86 4.35 4.35 0 00.36-1.4v-6a3.85 3.85 0 00-.25-1.41zm-5.86 8.26A3.85 3.85 0 1118.35 14a3.85 3.85 0 01-3.86 3.85zm4.84.51a.94.94 0 01-.34.4.87.87 0 01-.5.15.94.94 0 01-.63-.26.9.9 0 01-.26-.65.89.89 0 01.15-.5.92.92 0 01.4-.33.92.92 0 011 .19.94.94 0 01.25.47 1 1 0 01-.07.53z"/><path class="cls-1" d="M15.89 11.92a2.52 2.52 0 00-1.38-.42 2.42 2.42 0 00-1 .19 2.35 2.35 0 00-.81.54 2.48 2.48 0 00-.55.81A2.6 2.6 0 0012 14a2.5 2.5 0 004.26 1.78 2.51 2.51 0 00.74-1.29 2.46 2.46 0 00-.14-1.44 2.54 2.54 0 00-.97-1.13z"/><path class="cls-1" d="M14.5 0A14.5 14.5 0 1029 14.5 14.5 14.5 0 0014.5 0zM22 14c0 2 0 2.3-.05 3.1a5.74 5.74 0 01-.35 1.82 3.7 3.7 0 01-.87 1.32 3.66 3.66 0 01-1.33.86 5.48 5.48 0 01-1.82.35h-3.09c-2.03 0-2.3 0-3.1-.05a5.8 5.8 0 01-1.82-.35 3.7 3.7 0 01-1.32-.87 3.66 3.66 0 01-.86-1.33A5.48 5.48 0 017 17.08V10.9a5.8 5.8 0 01.4-1.83 3.7 3.7 0 01.87-1.32 3.82 3.82 0 011.33-.87 5.56 5.56 0 011.82-.34h6.19a5.74 5.74 0 011.82.35 3.7 3.7 0 011.32.87 3.66 3.66 0 01.86 1.33 5.48 5.48 0 01.39 1.83V14z"/></g></g></svg>