<svg xmlns="http://www.w3.org/2000/svg" viewBox="0 0 29 29"><g id="Layer_2" data-name="Layer 2"><path d="M14.5 0A14.5 14.5 0 1029 14.5 14.5 14.5 0 0014.5 0zm-3.41 20.41a1.75 1.75 0 01-1.8.75 1.75 1.75 0 01-1.38-1.38 1.76 1.76 0 113.18.63zm5.08.5a.46.46 0 01-.09.15.4.4 0 01-.15.1.47.47 0 01-.17 0h-1.32a.45.45 0 01-.44-.41 6.12 6.12 0 00-5.72-5.72.47.47 0 01-.28-.1.41.41 0 01-.11-.3v-1.32a.47.47 0 010-.17A.4.4 0 018 13a.46.46 0 01.15-.09h.18a8.34 8.34 0 017.86 7.86.57.57 0 01-.02.14zm4-.17a.47.47 0 010 .17.31.31 0 01-.1.15.71.71 0 01-.14.1.47.47 0 01-.17 0h-1.37a.42.42 0 01-.3-.12.43.43 0 01-.13-.3 10.1 10.1 0 00-9.66-9.63A.43.43 0 018 11a.42.42 0 01-.12-.3V9.36a.47.47 0 010-.17A.4.4 0 018 9a.38.38 0 01.16 0 .47.47 0 01.17 0 12.29 12.29 0 0111.82 11.74z" fill="#1d63ed" id="Layer_1-2" data-name="Layer 1"/></g></svg>