<svg xmlns="http://www.w3.org/2000/svg" viewBox="0 0 29 29"><defs><style>.cls-1{fill:#1d63ed}</style></defs><g id="Layer_2" data-name="Layer 2"><g id="Layer_1-2" data-name="Layer 1"><path class="cls-1" d="M14.5 0A14.5 14.5 0 1029 14.5 14.5 14.5 0 0014.5 0zm7.15 17.69a1.82 1.82 0 01-.48.84 1.9 1.9 0 01-.84.47 44 44 0 01-5.85.32A43.88 43.88 0 018.64 19a1.8 1.8 0 01-.84-.47 1.93 1.93 0 01-.49-.84A20 20 0 017 14.07a20.07 20.07 0 01.31-3.63 1.93 1.93 0 01.49-.84 1.83 1.83 0 01.84-.49 45.63 45.63 0 015.84-.32 45.68 45.68 0 015.85.32 1.87 1.87 0 011.32 1.33 19.21 19.21 0 01.35 3.63 19 19 0 01-.35 3.62z"/><path class="cls-1" d="M12.95 16.3l3.91-2.23-3.91-2.23v4.46z"/></g></g></svg>