<?xml version="1.0" encoding="UTF-8"?> <svg xmlns="http://www.w3.org/2000/svg" fill="none" height="41" viewBox="0 0 127 41" width="127"><g fill="#fff"><path d="m15.8605 17.6277 9.6292 4.3885 9.7143-8.5214c.1491-.703.213-1.3847.213-2.1303 0-5.98627-4.8784-10.864744-10.8647-10.864744-3.579 0-6.9236 1.768174-8.9474 4.729344l-1.6191 8.3722z" opacity=".6"></path><path d="m5.89028 27.8107c-.14912.703-.21303 1.4273-.21303 2.173 0 6.0075 4.89975 10.886 10.88605 10.886 3.6002 0 6.9662-1.7895 8.99-4.7507l1.5977-8.3509-2.1303-4.0902-9.6717-4.4098z"></path><path d="m5.84731 11.1516 6.60409 1.5552 1.4486-7.49881c-.8948-.68171-2.0025-1.06517-3.1529-1.06517-2.85467 0-5.19804 2.32207-5.19804 5.19802-.0213.6391.08522 1.25686.29825 1.81076z" opacity=".9"></path><path d="m5.2724 12.728c-2.93986.9587-5.006287 3.792-5.006287 6.9023 0 3.0251 1.874697 5.7306 4.686737 6.7958l9.24565-8.3509-1.683-3.6216z" opacity=".7"></path><path d="m27.2573 36.0978c.9161.6817 2.0025 1.0865 3.1316 1.0865 2.8547 0 5.198-2.3221 5.198-5.1981 0-.6391-.1065-1.2356-.3195-1.8108l-6.5827-1.5338z"></path><path d="m28.5999 26.8948 7.2432 1.683c2.9611-.9587 5.0063-3.792 5.0063-6.9236 0-3.0038-1.8747-5.7306-4.6868-6.7958l-9.48 8.3083z" opacity=".4"></path><path d="m60.065 29.5151.8734-.0853.0639 1.7895c-2.3007.3196-4.2819.49-5.9223.49-2.1729 0-3.7281-.6391-4.6228-1.896-.8948-1.2569-1.3634-3.2381-1.3634-5.901 0-5.3259 2.109-7.9675 6.3484-7.9675 2.0451 0 3.5789.5752 4.5802 1.7043 1.0012 1.1291 1.5125 2.9399 1.5125 5.3684l-.1278 1.7256h-10.0126c0 1.683.2983 2.9186.9161 3.7281s1.6616 1.2143 3.1529 1.2143c1.5338.0213 3.0463-.0426 4.6015-.1704zm-.8095-6.5615c0-1.8534-.2983-3.1742-.8948-3.9411s-1.5551-1.1504-2.8972-1.1504c-1.3422 0-2.3647.4048-3.0251 1.2143s-1.0226 2.109-1.0439 3.8772z"></path><path d="m64.688 31.4111v-21.7507h2.2581v21.7507z"></path><path d="m81.2831 20.8446v7.4562c0 .7669 1.8747.916 1.8747.916l-.1065 2.0025c-1.5977 0-2.9186.1279-3.7281-.6391-1.8321.8096-3.6216 1.1291-5.4536 1.1291-1.3848 0-2.4499-.3834-3.1742-1.193-.7244-.7882-1.0865-1.9173-1.0865-3.4085 0-1.4699.3621-2.5564 1.1078-3.2594.7456-.703 1.9173-1.1291 3.515-1.2782l4.7507-.4474v-1.2782c0-1.0226-.2131-1.7682-.6604-2.2156-.4474-.4473-1.0652-.6604-1.8321-.6604h-5.965v-2.0238h5.8158c1.7043 0 2.9612.3835 3.7281 1.193.8309.7882 1.2143 2.0238 1.2143 3.7068zm-9.3308 6.1567c0 1.8534.7669 2.7907 2.3007 2.7907 1.3847 0 2.7268-.213 4.0477-.6817l.6817-.2343v-5.0063l-4.4737.426c-.9161.064-1.5552.3409-1.9813.7883-.426.4473-.5751 1.0864-.5751 1.9173z"></path><path d="m90.1666 17.9686c-2.1942 0-3.302.767-3.302 2.3008 0 .703.2556 1.2143.7669 1.5125.5113.2983 1.6617.5965 3.4512.9161 1.8108.3195 3.0676.7456 3.8133 1.3208.7456.5539 1.1077 1.6191 1.1077 3.1742s-.5112 2.7055-1.5125 3.4298c-1.0013.7244-2.4499 1.0865-4.3885 1.0865-1.2356 0-5.4323-.4687-5.4323-.4687l.1278-1.9812c2.4073.2131 4.1541.4048 5.3258.4048s2.0664-.1917 2.6842-.5539.9374-1.0013.9374-1.8747-.2557-1.4699-.7882-1.7895c-.5113-.3195-1.683-.6178-3.4512-.8947-1.7895-.277-3.0464-.6817-3.792-1.2356-.7456-.5326-1.1078-1.5552-1.1078-3.0251s.5113-2.5564 1.5552-3.2807c1.0439-.703 2.3434-1.0652 3.8772-1.0652 1.2356 0 5.4963.3196 5.4963.3196v1.9812c-2.2582-.1065-4.0903-.277-5.3685-.277z"></path><path d="m106.953 18.2457h-4.814v7.2431c0 1.7256.128 2.876.362 3.4299.256.5326.852.8095 1.811.8095l2.705-.1917.149 1.8747c-1.363.213-2.386.3408-3.089.3408-1.576 0-2.663-.3834-3.28-1.1503-.618-.767-.9164-2.2369-.9164-4.3885v-7.9675h-2.1516v-1.9812h2.1516v-4.6441h2.2584v4.6228h4.814z"></path><path d="m110.128 12.8344v-2.6203h2.258v2.6416zm0 18.5766v-15.1467h2.258v15.1467z"></path><path d="m122.249 15.9448c.661 0 1.811.1278 3.409.3622l.724.0852-.085 1.8321c-1.619-.1917-2.812-.277-3.579-.277-1.704 0-2.876.4048-3.494 1.2356-.618.8096-.937 2.3434-.937 4.559 0 2.2155.277 3.7493.852 4.6228.575.8734 1.768 1.2995 3.579 1.2995l3.579-.277.085 1.8747c-1.875.277-3.281.4261-4.218.4261-2.365 0-4.005-.6178-4.9-1.8321-.894-1.2143-1.363-3.2594-1.363-6.1353 0-2.876.49-4.8998 1.449-6.0715 1.001-1.1078 2.62-1.7043 4.899-1.7043z"></path></g></svg> 