<?xml version="1.0" encoding="UTF-8"?> <svg xmlns="http://www.w3.org/2000/svg" xmlns:xlink="http://www.w3.org/1999/xlink" fill="none" height="33" viewBox="0 0 127 33" width="127"><clipPath id="a"><path d="m45.1099 5.67358h81.0145v21.9102h-81.0145z"></path></clipPath><clipPath id="b"><path d="m.124512.5h33.0644v32.3896h-33.0644z"></path></clipPath><g clip-path="url(#a)" fill="#fff"><path d="m60.7131 15.051h-6.8086c-.1754 0-.3171.1417-.3171.3172v3.3289c0 .1754.1417.3194.3171.3194h2.6564v4.1364s-.596.2024-2.2447.2024c-1.9457 0-4.6628-.7107-4.6628-6.6848s2.8296-6.76133 5.486-6.76133c2.2988 0 3.2907.40483 3.9205.60053.1979.0608.3801-.1372.3801-.3126l.7603-3.21649c0-.08323-.027-.18219-.1215-.24742-.2564-.18219-1.8174-1.05716-5.7626-1.05716-4.5436-.00225-9.2063 1.93213-9.2063 11.22617 0 9.294 5.3375 10.6795 9.8361 10.6795 3.7248 0 5.983-1.5924 5.983-1.5924.0923-.0518.1035-.1822.1035-.2407v-10.3782c0-.1754-.1417-.3171-.3172-.3171z"></path><path d="m95.7995 6.78693c0-.1777-.1394-.3194-.3149-.3194h-3.8328c-.1754 0-.3171.14395-.3171.3194v7.40687h-5.9741v-7.40687c0-.1777-.1417-.3194-.3171-.3194h-3.8328c-.1754 0-.3171.14395-.3171.3194v20.05907c0 .1777.1417.3216.3171.3216h3.8328c.1754 0 .3171-.1439.3171-.3216v-8.581h5.9741l-.0112 8.5787c0 .1777.1417.3217.3171.3217h3.8418c.1754 0 .3149-.144.3171-.3217z"></path><path d="m67.9464 9.41857c0-1.38105-1.1067-2.49669-2.472-2.49669s-2.472 1.11564-2.472 2.49669c0 1.38103 1.1067 2.49673 2.472 2.49673s2.472-1.1179 2.472-2.49673z"></path><path d="m67.6722 22.6151v-9.2603c0-.1754-.1417-.3194-.3171-.3194h-3.8215c-.1755 0-.3329.1799-.3329.3576v13.2663c0 .3891.2429.5061.5578.5061h3.4436c.3779 0 .4701-.1845.4701-.5129z"></path><path d="m110.366 13.0669h-3.804c-.175 0-.317.144-.317.3217v9.8361s-.967.7063-2.337.7063-1.736-.6231-1.736-1.9659v-8.5788c0-.1776-.142-.3216-.317-.3216h-3.8601c-.1732 0-.3172.144-.3172.3216v9.2266c0 3.9879 2.2223 4.9641 5.2813 4.9641 2.508 0 4.532-1.3855 4.532-1.3855s.097.731.14.8165c.043.0854.157.1732.279.1732l2.456-.0113c.173 0 .317-.1439.317-.3194v-13.4642c0-.1776-.144-.3216-.319-.3216z"></path><path d="m120.764 12.6148c-2.162 0-3.63.9649-3.63.9649v-6.79277c0-.1777-.142-.3194-.318-.3194h-3.844c-.175 0-.317.14395-.317.3194v20.05907c0 .1777.142.3216.317.3216h2.668c.119 0 .211-.063.279-.1709.065-.108.162-.9245.162-.9245s1.572 1.4891 4.548 1.4891c3.493 0 5.497-1.7725 5.497-7.9557 0-6.1833-3.201-6.9908-5.362-6.9908zm-1.5 11.3004c-1.321-.0405-2.214-.6388-2.214-.6388v-6.352s.882-.5421 1.966-.6388c1.37-.1237 2.69.2902 2.69 3.5584 0 3.4459-.596 4.1252-2.44 4.0712z"></path><path d="m78.6895 13.0335h-2.8746s-.0045-3.79677-.0045-3.79901c0-.14396-.0742-.21594-.2407-.21594h-3.9182c-.153 0-.234.06748-.234.21369v3.92496s-1.9636.4746-2.0963.5129c-.1327.0382-.2294.1597-.2294.3059v2.4674c0 .1777.1417.3194.3171.3194h2.0086v5.9336c0 4.4086 3.0928 4.8405 5.1779 4.8405.9537 0 2.0941-.3059 2.283-.3757.1147-.0427.1799-.1597.1799-.2879v-2.7126c.0023-.1777-.1462-.3194-.3149-.3194s-.596.0675-1.0369.0675c-1.4125 0-1.8916-.6568-1.8916-1.507 0-.8503 0-5.639 0-5.639h2.8746c.1754 0 .3171-.1439.3171-.3194v-3.0905c0-.1777-.1417-.3194-.3171-.3194z"></path></g><g clip-path="url(#b)"><path clip-rule="evenodd" d="m16.6074.5c-9.11459 0-16.482888 7.42261-16.482888 16.6054 0 7.3403 4.721118 13.5537 11.270588 15.7528.8188.1653 1.1188-.3573 1.1188-.7969 0-.385-.027-1.7045-.027-3.0794-4.58518.9899-5.53999-1.9795-5.53999-1.9795-.73687-1.9244-1.82867-2.4191-1.82867-2.4191-1.50071-1.0172.10932-1.0172.10932-1.0172 1.66469.11 2.5382 1.7045 2.5382 1.7045 1.47338 2.5291 3.84764 1.8145 4.80274 1.3745.1363-1.0722.5733-1.8144 1.0372-2.2267-3.65702-.385-7.50463-1.8145-7.50463-8.1929 0-1.8145.65454-3.299 1.69168-4.4536-.16364-.4123-.73687-2.11712.16397-4.3989 0 0 1.39174-.43995 4.52978 1.70451 1.3436-.36349 2.7291-.5484 4.1209-.54995 1.3918 0 2.8105.19265 4.1206.54995 3.1384-2.14446 4.5302-1.70451 4.5302-1.70451.9008 2.28178.3272 3.9866.1636 4.3989 1.0645 1.1546 1.692 2.6391 1.692 4.4536 0 6.3784-3.8476 7.7802-7.5319 8.1929.6005.5222 1.1188 1.5118 1.1188 3.079 0 2.2268-.027 4.0139-.027 4.5636 0 .4399.3003.9625 1.1188.7976 6.5494-2.1998 11.2705-8.4129 11.2705-15.7532.027-9.18279-7.3683-16.6054-16.4556-16.6054z" fill="#fff" fill-rule="evenodd"></path></g></svg> 