<?xml version="1.0" encoding="UTF-8"?> <svg xmlns="http://www.w3.org/2000/svg" fill="none" height="28" viewBox="0 0 124 28" width="124"><g fill="#fff"><path d="m27.3335 11.0928-.0375-.1-3.7832-9.86594c-.0766-.193723-.2128-.358058-.389-.469217-.1315-.084143-.2809-.136322-.4361-.152356-.1553-.016034-.3122.004524-.4581.060025-.1459.055502-.2768.144403-.3821.259579-.1054.115176-.1822.253419-.2245.403659l-2.5537 7.81608h-10.34132l-2.55367-7.81608c-.04259-.15001-.11966-.287998-.22506-.402953-.10539-.114956-.23619-.2037-.38198-.259156-.14578-.055457-.30251-.07609-.45768-.060256-.15517.015835-.30449.067699-.43606.151458-.17621.111159-.31246.275494-.38903.469217l-3.781418 9.86774-.03926.0982c-.5444134 1.4224-.611483 2.9833-.191099 4.4472.420385 1.4639 1.305437 2.7515 2.521697 3.6686l.01428.0107.03212.0249 5.7551 4.3122 2.85528 2.1569 1.7345 1.3113c.2035.1537.4516.2369.7067.2369s.5032-.0832.7067-.2369l1.7345-1.3113 2.8553-2.1569 5.7961-4.3371.0161-.0125c1.2162-.9168 2.1013-2.2039 2.522-3.6675.4207-1.4635.3542-3.0241-.1896-4.4465z"></path><path d="m49.9822 10.5823h4.0651c-.6781-4.32108-4.4203-7.33084-9.2902-7.33084-5.7623 0-10.0862 4.23542-10.0862 11.32894 0 6.9669 4.1294 11.2879 10.2039 11.2879 5.4518 0 9.3545-3.5057 9.3545-9.1809v-2.644h-8.9351v3.1168h5.0752c-.0642 3.14-2.1611 5.1275-5.4731 5.1275-3.6869 0-6.2138-2.7618-6.2138-7.7501 0-4.9562 2.5697-7.70726 6.1281-7.70726 2.6554 0 4.472 1.41835 5.1716 3.75196z"></path><path d="m56.917 25.5669h3.8921v-16.50279h-3.8921zm1.963-19.12539c1.2367 0 2.2467-.94735 2.2467-2.107 0-1.15966-1.01-2.11771-2.2467-2.11771s-2.2574.94556-2.2574 2.11771c0 1.17214 1.0029 2.107 2.2502 2.107z"></path><path d="m72.4639 9.06385h-3.2585v-3.96424h-3.8921v3.96424h-2.3431v3.00975h2.3431v9.1809c-.0214 3.1061 2.2378 4.6386 5.1609 4.5476.7786-.0154 1.5508-.1459 2.2913-.3871l-.6567-3.0437c-.372.0965-.7543.1474-1.1385.1517-.9797 0-1.7649-.3443-1.7649-1.9143v-8.544h3.2585z"></path><path d="m75.4756 25.5669h13.6873v-3.3434h-9.6971v-18.67223h-3.9902z"></path><path d="m96.619 25.9007c2.5912 0 4.138-1.2149 4.849-2.6012h.128v2.2676h3.748v-11.0506c0-4.3639-3.559-5.67519-6.7102-5.67519-3.4727 0-6.1388 1.54679-6.9989 4.55659l3.635.5173c.3855-1.1293 1.483-2.0963 3.3906-2.0963 1.8075 0 2.7965.9242 2.7965 2.5477v.0642c0 1.1169-1.173 1.1722-4.0867 1.4826-3.2032.3443-6.2672 1.3006-6.2672 5.0204-.0107 3.2471 2.3645 4.9669 5.5159 4.9669zm1.2796-2.8545c-1.624 0-2.7857-.7422-2.7857-2.1712 0-1.4951 1.3009-2.1177 3.0337-2.3657 1.0225-.1392 3.0654-.3979 3.5694-.8047v1.9447c.01 1.8322-1.474 3.3915-3.8174 3.3915z"></path><path d="m108.209 25.5669h3.828v-2.6012h.225c.614 1.2042 1.894 2.892 4.733 2.892 3.892 0 6.806-3.0865 6.806-8.5244 0-5.5039-3-8.49222-6.817-8.49222-2.914 0-4.129 1.75192-4.722 2.94552h-.164v-8.23533h-3.889zm3.818-8.255c0-3.2113 1.375-5.2791 3.881-5.2791 2.591 0 3.926 2.2034 3.926 5.2791 0 3.0758-1.355 5.3523-3.926 5.3523-2.484 0-3.881-2.1499-3.881-5.3523z"></path></g></svg> 