<?xml version="1.0" encoding="UTF-8"?> <svg xmlns="http://www.w3.org/2000/svg" xmlns:xlink="http://www.w3.org/1999/xlink" fill="none" height="33" viewBox="0 0 125 33" width="125"><clipPath id="a"><path d="m.429199.548096h123.837v32.274h-123.837z"></path></clipPath><g clip-path="url(#a)"><path d="m89.7839 10.7083-3.4917.9782c.3183.8887.5505 2.4836.5505 4.5959v10.4751h3.9028v-11.0885c.7262-.8887 1.5121-1.3165 2.3875-1.3165.4344 0 .756.0929 1.1374.3051l1.0743-3.6144c-.6101-.2752-.8721-.3382-1.4557-.3382-.4344 0-.9583.0928-1.2799.2454-.7262.368-1.658 1.1937-2.2117 1.9895-.0564-.8886-.262-1.5916-.6102-2.2349zm-13.5456-5.17617h-.4245v21.22867h4.0753v-9.404h5.1497v-3.4917h-5.1497v-4.87113h6.4296l.2487-1.85361c-3.8663-.29512-7.3779-.91852-10.3324-1.60823zm-9.5466 24.04717 1.8901 2.2084c1.8337-.7361 4.1316-2.3908 4.7152-4.9938.2023-.8555.2885-1.4092.2885-4.1648v-17.05055h-4.1316v17.50485c0 2.2979-.0862 3.1534-.4079 3.9194-.378.8589-1.3098 1.9001-2.3576 2.5732zm37.1183-10.7503c0 3.7073-.726 5.2989-2.414 5.2989-.756 0-1.6311-.4277-1.9793-1.2833-.3183-.7958-.4941-2.1454-.4941-3.9526 0-1.5618.1426-2.6627.4079-3.4916.3183-.9816 1.0775-1.595 2.0065-1.595.699 0 1.309.3051 1.687.829.524.7063.786 2.0857.786 4.198zm2.388 6.0981c1.28-1.532 1.863-3.3724 1.863-6.0649 0-2.5433-.524-4.2577-1.717-5.7299-1.277-1.5917-2.938-2.3577-5.064-2.3577-4.0153 0-6.6913 3.2762-6.6913 8.2103s2.6461 8.1174 6.6913 8.1174c2.302 0 3.784-.829 4.921-2.1752zm11.175-8.7939c0 1.4391-.846 2.2382-2.388 2.2382-1.369 0-2.301-.6432-2.301-2.2382 0-1.469.845-2.3278 2.331-2.3278 1.485 0 2.358.8588 2.358 2.3278zm6.897-3.3392-1.628-2.603c-.902.8589-2.01 1.3496-3.084 1.3496-.494 0-.756-.063-1.834-.3382-1.078-.3051-1.834-.3979-2.676-.3979-3.813 0-6.284 2.0824-6.284 5.2988 0 2.3278 1.048 3.7669 3.2 4.3506-.872.2155-1.833.6731-2.271 1.1937-.319.3681-.468.8588-.468 1.4391 0 .4908.116.9185.292 1.2866.202.3382.494.6134.846.7627.699.2785 1.833.4609 3.578.4907.901 0 1.455.0299 1.657.0299 1.078.063 1.629.2453 2.036.4609.408.242.7.7958.7 1.4093 0 .6134-.378 1.2268-.932 1.5949-.524.3648-1.369.5173-2.473.5173-1.808 0-2.792-.6731-2.792-1.9299 0-.5504.059-.6731.172-1.0113h-3.608c-.142.305-.351.7361-.351 1.5949 0 1.0711.411 1.9896 1.223 2.7854 1.337 1.3164 3.522 1.6845 5.647 1.6845 2.328 0 4.57-.5504 5.88-2.0227.815-.9185 1.193-1.9299 1.193-3.2463 0-1.4093-.407-2.4836-1.28-3.3392-1.047-1.0113-2.238-1.3794-4.509-1.4092l-2.096-.0299c-.408 0-.64-.1525-.64-.368 0-.4278.554-.7959 1.542-1.2833.292.0298.408.0298.584.0298 3.173 0 5.497-1.963 5.497-4.6589 0-1.0412-.291-1.837-.872-2.5731.494.063.644.0928 1.018.0928 1.078 0 1.89-.3382 2.736-1.1639zm-110.9318 3.7835c-4.22778 1.0346-7.09606 3.0573-7.09606 5.3818 0 1.4391 1.10089 2.7622 2.94123 3.8034-.55044-.8854-.85219-1.8138-.85219-2.7722 0-2.4206 1.87352-4.6456 5.01042-6.4163zm44.5828 9.0923c0-1.5253-.9417-2.9412-2.54-4.1018.1426.4642.2255.9417.2255 1.4259 0 4.3704-6.1046 8.1074-14.7559 9.6593.9782.1094 1.9929.1724 3.0374.1724 7.7493 0 14.033-3.2032 14.033-7.1525zm-4.9871-2.3775c0-1.6016-1.3728-3.0871-3.7106-4.314.5472.6631.8456 1.3694.8456 2.1056 0 3.873-8.2534 7.0132-18.4333 7.0132s-18.43-3.1402-18.43-7.0132c0-.4941.136-.9716.388-1.4358-1.6348 1.081-2.5666 2.3245-2.5666 3.6442 0 4.1947 9.3808 7.5935 20.9568 7.5935 11.5759 0 20.9567-3.4022 20.9567-7.5935zm-9.1553-.189c-4.271 2.7588-17.4253 3.8001-23.0889.2619-4.4401-2.7754-2.918-7.1723-15.61809-16.86482-1.66129-1.26668.30838-2.61296 1.55186-1.75081 1.24348.86214.10279 1.09094 2.61296 3.60111 5.06677 5.07002 5.01697.51065 5.81617 2.23492 1.6812 3.6243 5.395 7.2752 5.395 7.2752 3.7205 2.4206 6.6883 2.9479 12.1728-.7627 3.4784-2.3543 2.0559 3.7437 10.5845-.6499 3.1104-1.6016 2.981-.5405 6.1444-4.9474 1.3132-1.83038 3.8233 1.406.9782 1.8536-1.1373.1791-3.0606 1.4259-3.8862 3.3922-1.1639 2.9081-.6599 5.0602-2.6627 6.3534zm-23.709-7.4542c-1.0545-.4643-2.1587-2.2615-2.5897-2.9811 1.1804-1.1539.7029-3.08711.0364-4.15153-.6665-1.0611-1.4722-.75935-2.3609-1.73423-.8854-.97489.3349-3.51821 1.4689-1.56181 4.2511 7.31827 7.0464 4.27425 10.5182 3.83654 3.3358-.41781 6.2804 1.39933 7.1856-3.74701.1493-.84225.965-1.04452 1.0479.34817.0862 1.38938.6068 4.77827 2.4405 5.21597s3.2894-.4311 3.7205-.91188c.4277-.48081.6532-.41117.8422.78258.189 1.1937.6533 2.8417 3.2264 1.008 5.2658-3.75693 3.757-5.20931 5.8029-6.17425 1.1672-.55044 3.001 1.24016.3482 2.5798-3.7967 1.91995-4.198 4.30405-6.5987 5.81615-4.0322 2.5467-2.7987.1028-9.288-.8223-2.4969-.3582-3.3026 2.4305-5.2524 1.6248-4.4997-1.8603-7.6366-1.5022-10.5513.8654zm14.0662-13.56223c.1492 1.09757.3316 1.07105.7262 1.17384.3913.09948.892-.51729.9086-1.11747.0166-.60019-.2554-.9782-.8489-.95831-.5902.02322-.8058.32165-.7859.90194zm19.5541 1.99951c.4709.46092 1.7342.14922 2.026-.17906.7561-.84556.7826-1.35622.3913-1.92325-.3913-.5637-1.2136-.46423-2.0293.12933-.8124.59023-.6599 1.71434-.3913 1.9763zm-.3548 5.58736c-.4045.53716-.4178.91856-.1293 1.21696.3084.3183.945.5935 1.4026.2255.4576-.3615.4576-.892.0697-1.35956-.3913-.46755-.9219-.46755-1.343-.08622zm-40.0831-6.60867c.6201.18901.8887.76598 1.4126.10943.2587-.32497.2819-.75272-.0597-1.23685-.2155-.30175-1.2202-.51065-1.6447-.07958-.4244.43107-.0364 1.10421.2951 1.207zm-12.398264-.36807c1.107524.67977 1.833714 1.70771 2.669334.7892.28185-.30507.63002-.88536.02652-1.99288-.44102-.809093-1.90003-1.140687-2.414-.828989-.51397.308382-1.14068244 1.505439-.281854 2.032669zm10.236264 5.25245c.3515.36475.9517.33491 1.3098.13927.3582-.20227.2819-.75604-.0597-1.24016-.2155-.30175-.8521-.44102-1.2799-.00995s-.2155.85551.0298 1.11084z" fill="#fff"></path></g></svg> 