<?xml version="1.0" encoding="UTF-8"?> <svg xmlns="http://www.w3.org/2000/svg" fill="none" height="31" viewBox="0 0 171 31" width="171"><g fill="#fff"><path clip-rule="evenodd" d="m27.0113 6.5749c.5031.26829.9055.70425 1.0732 1.24082l2.5487 10.96618c.0671.5702-.0671 1.1403-.4024 1.6098l-7.0761 8.7528c-.3689.5031-.939.7713-1.5426.7043h-11.2681c-.5701-.0336-1.14021-.3018-1.54264-.7043l-7.07606-8.7528c-.33536-.4695-.4695-1.0396-.36889-1.6098l2.51518-11.03325c.13415-.57011.50304-1.00607 1.00608-1.24082l10.22843-4.92977c.2683-.06707.5701-.06707.8384-.06707s.5701.03353.8384.16768zm-.5703 11.7377c0 .0335.0336.0335.0671.0335.3018.0671.5701.3354.6036.7043-.1006.2682-.3689.4695-.6707.4695-.067 0-.1006 0-.1677-.0336-.0335-.0335-.0335-.0335-.067-.0335-.0393 0-.0671-.0115-.0901-.0211-.0163-.0067-.0302-.0124-.0441-.0124-.0995-.0249-.1805-.0682-.2705-.1163-.0313-.0168-.0637-.0341-.0984-.0514-.067 0-.1341-.0336-.2012-.0671h-.0335c-.3354-.1341-.7043-.2348-1.0732-.3018h-.0335c-.1006 0-.2012.0335-.2683.1006 0 0 0 .0335-.0335.0335l-.2683-.0335c-.6037 1.9115-1.9116 3.5212-3.6219 4.5609l.1006.2682s-.0335 0-.0335.0336c-.0671.1006-.0671.2347-.0335.3353.1341.3354.3018.6708.5365.9726v.0671c.0671.067.1006.1006.1342.1676.1006.1006.1677.2012.2347.3354.0336.0335.0671.0671.0671.1006 0 0 .0335 0 .0335.0335.0671.1677.0671.3354.0336.5031-.0336.1676-.1677.3018-.3019.3689-.021.007-.0405.014-.0592.0207-.0708.0253-.1294.0463-.209.0463-.2683 0-.5031-.1676-.6372-.4024-.0336 0-.0336-.0335-.0336-.0335-.0167-.0168-.0251-.0336-.0335-.0503-.0084-.0168-.0168-.0336-.0335-.0503-.0671-.1006-.1006-.2348-.1342-.3689l-.067-.2012v-.0336c-.1007-.3689-.2683-.7042-.436-1.0396-.0671-.1006-.1677-.1677-.2683-.2012 0-.0335 0-.0335-.0335-.0335l-.1342-.2348c-.0853.0256-.1728.0534-.262.0817-.2611.0828-.5361.1701-.8111.2201-.6037.1677-1.2073.2348-1.811.2348-1.006 0-1.9786-.1677-2.9176-.5366l-.1341.2683c0 .0168 0 .0251-.0042.0293s-.0126.0042-.0294.0042c-.1006.0336-.2012.1006-.2682.2012-.1677.3354-.3354.6708-.436 1.0397l-.0671.2012c-.0167.067-.0419.1257-.0671.1844-.0251.0587-.0503.1174-.067.1845-.0336.0335-.0671.067-.0671.1006-.0335 0-.0335.0335-.0335.0335-.1342.2348-.3689.4024-.6372.4024-.0671 0-.1677-.0335-.2348-.067-.3018-.1677-.4359-.5701-.2683-.9055.0336 0 .0336-.0335.0336-.0335.0168-.0168.0251-.0336.0335-.0503.0084-.0168.0168-.0336.0336-.0503.0441-.0589.0817-.1177.1158-.1708.0436-.0681.0812-.1269.1189-.1646.0671-.0671.1006-.1006.1341-.1677v-.0335c.2013-.3018.4025-.6372.5366-.9726.0336-.1006.0336-.2347-.0335-.3353 0 0-.0335 0-.0335-.0336l.1676-.2347c-.3353-.1677-.6036-.3689-.9054-.6036-1.30793-1.0061-2.24694-2.3811-2.74998-3.9237l-.30182.0335s0-.0335-.03353-.0335c-.06708-.0671-.16768-.1007-.26829-.1007h-.03354c-.40243.0671-.73779.1677-1.10668.3019h-.03354c-.06707 0-.13414.0335-.20121.067-.03746.0125-.07956.0297-.12458.048-.07591.0309-.16011.0651-.24432.0862-.01015 0-.02645-.0031-.04425-.0064-.04098-.0078-.08989-.017-.08989.0064 0 .0335 0 .0335-.03353.0335-.06708.0336-.10061.0336-.16768.0336-.30183.0335-.60365-.1677-.67072-.4695-.06707-.3689.16768-.7043.53657-.7714.01929-.0193.02748-.0274.03734-.0309.00729-.0026.01548-.0026.02973-.0026.03929 0 .06708-.0115.09009-.021.01628-.0068.03017-.0125.04406-.0125.06707 0 .13414-.0084.20121-.0168.06708-.0084.13415-.0168.20122-.0168.06707-.0335.13414-.0335.20121-.0335.40243-.0335.77133-.1006 1.14022-.2012.10061-.0671.20122-.1342.23475-.2348 0 0 .03354 0 .03354-.0335l.26829-.0671c-.30183-1.9115.13414-3.8566 1.17375-5.4999.01677-.0335.03354-.0587.0503-.0838.01677-.0252.03354-.0503.05031-.0838l-.19468-.1947c.01531-.0965-.04592-.2136-.10715-.2748-.26828-.2683-.60364-.4695-.939-.6708l-.20121-.1006c-.13415-.067-.26829-.1341-.3689-.2012-.03353 0-.1006-.0671-.1006-.0671s-.00001-.0335-.03354-.0335c-.26829-.2347-.33536-.63717-.13414-.939.1006-.16768.26828-.23475.4695-.23475.16768 0 .33536.06707.4695.16768l.03354.03354c.01676.01677.03353.02515.0503.03353.01677.00839.03353.01677.0503.03354.05031.0503.09223.10061.13415.15091.04192.05031.08384.10061.13414.15091.01015.01016.02338.02031.03782.03139.03326.02553.07294.05599.09632.10276.23475.26829.53658.53659.8384.77129h.00001c.06707.0336.13414.0671.2012.0671.03929 0 .06708-.0115.09009-.021.01627-.0068.03017-.0125.04406-.0125h.03353l.20122.1341c1.10671-1.17375 2.54871-2.01214 4.12491-2.3475.0581-.00968.1155-.01936.1723-.02894.3366-.0568.6523-.11004.9679-.13874l.0336-.26829v-.06707c.1006-.06707.1341-.16768.1676-.26828 0-.40244 0-.77133-.067-1.14022v-.03354c0-.06707 0-.13414-.0336-.20121-.0335-.13415-.067-.26829-.067-.40243v-.16768c0-.16768.067-.33536.2012-.46951.1676-.16768.3689-.26828.5701-.23475.3353.03354.6036.3689.5701.70426v.20121c-.0168.06707-.0252.13414-.0336.20122-.0083.06707-.0167.13414-.0335.20121 0 .03354-.0084.06707-.0168.10061-.0083.03353-.0167.06707-.0167.10061v.03353c-.0671.40243-.0671.77133-.0671 1.14022.0335.10061.0671.20122.1677.26829v-.03354l.0335.26829c1.5762.16768 3.1189.77132 4.3597 1.74385.1341.1342.2767.2683.4192.4024.1425.1342.285.2683.4192.4025l.2683-.1677h.0335c.0335.0335.1006.0335.1341.0335.0671 0 .1342-.0335.2013-.067.3018-.2013.6036-.4695.8384-.73783.0101-.01016.0233-.02031.0378-.03139.0332-.02553.0729-.05599.0963-.10275.0671-.10061.1677-.20122.2683-.30183.0335 0 .0671-.03353.1006-.06707l.0335-.03353c.1342-.10061.3019-.16768.4695-.16768.1677 0 .3689.1006.4695.23475.2348.30182.1677.70423-.1341.93903 0 .0128.0049.0207.0091.0275.0067.0109.0116.0188-.0091.0395-.0168.0168-.0335.0252-.0503.0336s-.0336.0167-.0503.0335c-.0671.0336-.1258.0671-.1845.1006-.0587.0336-.1173.0671-.1844.1006l-.2012.1006c-.3354.2013-.6372.4025-.939.6708-.0671.067-.1006.2012-.1006.3018v.0335l-.2013.2012c.5366.8384.939 1.7774 1.1738 2.75.2012.9725.2683 1.9786.1341 2.9511l.2683.0671c.0336.1006.1342.2012.2348.2347.3689.1007.7713.1677 1.1402.2013h.0335c.0671.0335.1342.0335.2013.0335.1341 0 .2682 0 .4024.0335.0671 0 .1341 0 .1341.0336zm-17.49915-6.5665-.00654-.0066v.0336c.00292-.0088.00508-.0178.00654-.027zm6.96895 5.9964.9054-.436.2348-.9725-.6372-.8049h-1.0061l-.6372.8049.2348.9725zm6.5059-.5031c.0671-.7042.0336-1.4085-.1341-2.1127-.1677-.7043-.436-1.375-.8049-1.9787l-2.5152 2.2805c-.067.0671-.1006.1341-.1341.2347-.0671.3019.1006.6037.4024.6708zm-4.695-3.3871 2.7499-1.9451c-1.006-1.0061-2.3139-1.6432-3.7895-1.8109l.2012 3.3871c0 .1006.0335.1677.1006.2348.1677.2347.5031.2682.7378.1341zm-2.6493-3.7896-.6707.1342c-1.1738.2683-2.2469.8719-3.1189 1.7103l2.7835 1.9786c.021.007.0405.014.0592.0207.0709.0254.1295.0464.2091.0464.3018 0 .5701-.2347.5701-.5366zm-2.2805 5.2987-2.4816-2.2134c-.73781 1.2409-1.07316 2.6829-.97256 4.0914l3.25296-.939c.1342-.0335.2012-.0671.2683-.1677.2012-.2347.1677-.5701-.0671-.7713zm.2683 2.8841-3.32003.5701c.46953 1.3414 1.40853 2.5152 2.58223 3.2865l1.2744-3.0853c.0671-.1006.0671-.2347.0335-.3353-.0335-.2683-.3018-.436-.5701-.436zm2.8506 4.8962c.503 0 .9725-.067 1.442-.1676.2348-.0671.436-.1007.6372-.1342l-1.6097-2.9176h-.0001c-.1005-.1006-.1676-.1677-.2682-.2348-.2348-.1341-.5031-.067-.6707.1342l-1.6433 2.9847c.6707.2012 1.4085.3353 2.1128.3353zm3.5212-1.0731c.8049-.5031 1.5091-1.2073 2.0122-2.0122.2683-.3689.4695-.8048.6372-1.2743l-3.3536-.5701c-.1006 0-.2012.0335-.3018.067-.2348.1006-.3689.3689-.3019.6372z" fill-rule="evenodd"></path><path d="m163.804 22.4709c.469.0336.972-.0335 1.408-.2012.269-.1341.436-.4359.403-.7378-.034-.3353-.235-.6371-.537-.7378-.503-.3018-1.073-.5701-1.643-.7377-.57-.2013-1.073-.436-1.543-.6708-.436-.2012-.805-.4695-1.173-.8048-.336-.3354-.571-.7043-.738-1.1402-.202-.5031-.269-1.0396-.269-1.5762-.033-1.1067.47-2.1799 1.342-2.8506.905-.7042 2.113-1.0396 3.655-1.0396.738 0 1.509.0671 2.247.2348.57.1006 1.14.2347 1.711.4359l-.638 2.8506c-.469-.1677-.905-.2683-1.375-.4024-.536-.1342-1.106-.1677-1.643-.1677-1.14 0-1.71.3018-1.71.939 0 .1341.033.2683.067.4024.067.1342.168.2348.302.3354s.335.2012.57.3353c.235.1342.57.2683.972.4025.671.2347 1.342.5365 1.945.8719.47.2347.872.5366 1.208.939.301.3018.503.6707.637 1.1067.134.4695.201.939.201 1.4085.067 1.1402-.469 2.2469-1.442 2.8841-.939.6371-2.28.9725-4.024.9725-.973.0335-1.912-.0671-2.851-.3018-.536-.1342-1.039-.3018-1.542-.4695l.603-2.9512c.604.2348 1.241.436 1.878.5701.671.0336 1.308.1006 1.979.1006zm-18.478-3.6889c-.034-1.0061.167-2.0122.503-2.9512.301-.8048.771-1.5091 1.375-2.1463.57-.5701 1.207-1.006 1.945-1.2743.737-.3018 1.509-.436 2.28-.436 1.811 0 3.253.5701 4.293 1.6768 1.039 1.1067 1.576 2.75 1.576 4.8962 0 .2013 0 .436-.034.7043 0 .2683-.033.4695-.033.6707h-8.183c.067.7043.436 1.375 1.04 1.7774.737.4695 1.609.7043 2.481.6707.637 0 1.308-.067 1.945-.1676.537-.1007 1.074-.2683 1.577-.5031l.503 2.9512c-.235.1341-.503.2012-.772.3018-.369.1006-.738.2012-1.106.2347-.403.0671-.805.1342-1.275.2013-.436.0335-.905.067-1.375.067-1.039.0336-2.045-.1341-3.018-.503-.805-.3018-1.509-.7713-2.113-1.375-.57-.6036-.972-1.3414-1.241-2.1127-.234-.9055-.368-1.811-.368-2.6829zm8.484-1.375c0-.3018-.067-.6036-.168-.9054-.067-.3019-.234-.5366-.402-.7714-.201-.2347-.436-.4359-.704-.5701-.336-.1677-.671-.2347-1.04-.2347s-.704.067-1.039.2347c-.269.1342-.537.3018-.738.5366-.201.2347-.369.503-.47.8049-.1.3018-.167.6036-.201.9054zm-18.31-8.31686 3.621-.57011v3.75597h4.36v3.0183h-4.36v4.4938c-.033.6372.101 1.2743.403 1.8109.268.436.805.6707 1.643.6707.403 0 .805-.0335 1.174-.1006.402-.0671.771-.1677 1.14-.3018l.503 2.817c-.469.2012-.972.3354-1.475.4695-.638.1341-1.308.2012-1.979.2012-.838.0336-1.677-.1006-2.448-.4024-.604-.2348-1.14-.6372-1.543-1.1067-.402-.503-.671-1.1067-.838-1.7439-.168-.7377-.235-1.5091-.201-2.2469zm-14.656 9.69186c-.033-1.0061.168-2.0122.503-2.9512.302-.8048.772-1.5091 1.375-2.1463.57-.5701 1.208-1.006 1.945-1.2743.738-.3018 1.51-.436 2.281-.436 1.811 0 3.253.5701 4.292 1.6768 1.04 1.1067 1.577 2.75 1.577 4.8962 0 .2013 0 .436-.034.7043-.033.2683-.033.4695-.033.6707h-8.217c.067.7043.436 1.375 1.04 1.7774.738.4695 1.61.7043 2.482.6707.637 0 1.307-.067 1.945-.1676.536-.1007 1.073-.2683 1.609-.5031l.503 2.9512c-.234.1341-.503.2012-.771.3018-.369.1006-.738.2012-1.107.2347-.402.0671-.804.1342-1.274.2013-.436.0335-.905.067-1.375.067-1.04.0336-2.046-.1341-3.018-.503-.805-.3018-1.509-.7713-2.113-1.375-.57-.6036-.972-1.3414-1.241-2.1127-.268-.9055-.402-1.811-.369-2.6829zm8.485-1.375c0-.3018-.067-.6036-.168-.9054-.067-.3019-.234-.5366-.402-.7714-.201-.2347-.436-.4359-.704-.5701-.336-.1677-.671-.2347-1.04-.2347s-.704.067-1.04.2347c-.268.1342-.503.3018-.704.5366-.201.2347-.369.503-.469.8049-.101.3018-.168.6036-.202.9054zm-22.234-4.695c.771-.2012 1.576-.3689 2.381-.503 1.006-.1677 2.045-.2348 3.051-.2348.906-.0335 1.811.1342 2.683.436.671.2347 1.275.6372 1.711 1.1737.436.5366.737 1.1738.905 1.8445.201.7713.268 1.5762.268 2.3811v7.2102h-3.588v-6.7407c0-1.1738-.168-1.9787-.469-2.4817-.302-.4695-.872-.7378-1.711-.7378-.268 0-.536 0-.838.0336-.302 0-.537.0335-.771.067v9.8596h-3.622zm-2.549 2.7835c-.335-.0671-.704-.1677-1.14-.2348-.47-.1006-.939-.1341-1.409-.1341-.268 0-.536.0335-.838.0671-.235.0335-.47.067-.704.1341v9.7589h-3.6223v-12.1399c.7378-.2683 1.5091-.4695 2.2805-.6372.9728-.2348 1.9788-.3354 2.9508-.3018.235 0 .47.0335.705.0335.268 0 .536.0335.838.1006.268.0335.537.0671.838.1341.235.0336.47.1007.705.2013zm-22.5026 3.2865c-.0335-1.0061.1677-2.0122.503-2.9512.3019-.8048.7714-1.5091 1.375-2.1463.5701-.5701 1.2073-1.006 1.9451-1.2743.7378-.3018 1.5091-.436 2.2804-.436 1.811 0 3.253.5701 4.2926 1.6768s1.5762 2.75 1.5762 4.8627c0 .2012 0 .436-.0335.7043-.0336.2682-.0336.4695-.0336.6707h-8.2163c.0671.7042.436 1.3749 1.0397 1.7774.7378.4695 1.6097.7042 2.4816.6707.6372 0 1.3079-.0671 1.9451-.1677.5366-.1006 1.0731-.2683 1.5762-.4695l.503 2.9512c-.2347.1341-.503.2012-.7713.3018-.3689.1006-.7378.2012-1.1067.2347-.4024.0671-.8048.1342-1.2743.2013-.436.0335-.9055.067-1.375.067-1.0396.0336-2.0457-.1341-3.0183-.503-.8048-.3018-1.5091-.7713-2.1127-1.375-.5701-.6036-.9725-1.3414-1.2408-2.1127-.2012-.9055-.3354-1.7774-.3354-2.6829zm8.5181-1.375c0-.3018-.0671-.6036-.1677-.9054-.067-.3019-.2347-.5366-.4024-.7714-.2012-.2347-.436-.4359-.7042-.5701-.3354-.1677-.6708-.2347-1.0397-.2347s-.7042.067-1.0396.2347c-.2683.1342-.5365.3018-.7378.5366-.2012.2347-.3689.503-.4695.8049-.1006.3018-.1676.6036-.2012.9054zm-14.3869 1.1738c0-2.3475-.8719-3.4877-2.5822-3.4877-.3689 0-.7378.0335-1.1067.1341-.3018.0671-.6037.2012-.8719.3689v6.573c.1676.0336.4024.0671.6707.1006.2683.0336.5701.0336.9054.0336.872.067 1.7104-.3019 2.2469-1.0061.5031-.8049.7714-1.7439.7378-2.7164zm3.689.1341c0 .939-.1342 1.878-.4695 2.7835-.2683.8049-.7043 1.5091-1.2744 2.1128-.6036.6036-1.3079 1.0731-2.0792 1.3749-.9055.3354-1.8445.4695-2.817.4695-.436 0-.9055-.0335-1.375-.067-.4695-.0336-.939-.1006-1.4085-.1342-.436-.0671-.8719-.1341-1.3079-.2347-.436-.0671-.8049-.1677-1.1067-.3019v-17.94164l3.6219-.57011v6.37185c.4024-.1677.8384-.3019 1.2744-.4025.4695-.1006.939-.1341 1.4085-.1341.8384 0 1.6432.1341 2.4145.503.6708.3019 1.2744.7714 1.7439 1.3415.503.6371.8719 1.3414 1.0732 2.1127.2012.8384.3018 1.7774.3018 2.7164zm-15.2924 5.9023c-.7713.2012-1.5762.3689-2.381.4695-1.0061.1677-2.0457.2348-3.0518.2348-.939.0335-1.8444-.1342-2.7164-.436-.6707-.2683-1.2408-.6707-1.7103-1.2073-.436-.5701-.7378-1.2073-.9055-1.9115-.2012-.7713-.2683-1.6097-.2683-2.4146v-7.0761h3.6219v6.6737c0 1.1737.1677 2.0121.4695 2.5152.3018.503.8719.7713 1.7103.7713.2683 0 .5366 0 .8384-.0335.3019-.0336.5366-.0336.7714-.1007v-9.826h3.6218zm-21.1276-7.7132c.3689-.4024.7043-.8049 1.1067-1.2073.3689-.436.7378-.8384 1.1067-1.2408.3689-.436.7043-.8049 1.0061-1.1738s.6036-.7042.8384-.9725h4.2926c-.872.9725-1.7104 1.9451-2.5152 2.8505-.8384.9055-1.7103 1.8445-2.6829 2.7835.5366.503 1.0396 1.0061 1.5091 1.5762.5031.6036 1.0061 1.2073 1.5091 1.878.4695.6372.939 1.3079 1.3415 1.9451.4024.6372.7378 1.2408 1.0061 1.7774h-4.1585c-.2683-.436-.5701-.872-.9055-1.375-.3353-.503-.7042-1.0061-1.0396-1.5426-.3689-.5031-.7713-1.0061-1.2073-1.4756-.3689-.436-.7713-.8384-1.2073-1.1738v5.6005h-3.6218v-18.37764l3.6218-.57011z"></path></g></svg> 