<?xml version="1.0" encoding="UTF-8"?> <svg xmlns="http://www.w3.org/2000/svg" fill="none" height="37" viewBox="0 0 146 37" width="146"><g fill="#fff"><path d="m11.5998 4.25202c-1.417-1.67236-2.63623-3.381393-2.88505-3.728438-.01834-.024882-.0537-.03143-.07858-.013096-.00524.003929-.00917.007858-.0131.013096-.24751.350974-1.46675 2.060008-2.88112 3.732368-12.14134 15.45985 1.91333 25.89345 1.91333 25.89345l.11393.0799c.10739 1.6135.37193 3.9288.37193 3.9288h1.05685s.26192-2.3101.37062-3.9288l.11524-.0903s14.05465-10.4232 1.91595-25.88698zm-2.92958 25.66828s-.62992-.537-.80017-.8068v-.0288l.76219-16.8362c.00393-.0223.02488-.0367.04715-.0328.01702.0026.03012.0157.03274.0328l.76481 16.8388v.0289c-.17025.2619-.80017.8067-.80017.8067"></path><path d="m34.9168 26.4759-5.8356-14.217-.017-.0406h-4.5509v.952h.7307c.4584 0 .829.3707.829.829v.0092l-.1309 14.3192c-.0027.4492-.3628.8133-.812.8224l-.7478.0079v.9468h4.4291v-.9455l-.4557-.0092c-.4505-.0118-.8107-.3798-.8133-.8303v-13.4889l6.366 15.2648c.1257.2999.4701.44.77.3143.1415-.0603.2554-.1729.3143-.3143l6.2206-14.9295.0865 13.1523c.0026.4558-.3641.829-.8198.8356h-.4676v.9468h5.1835v-.9468h-.7099c-.4518-.0066-.8158-.3746-.8198-.8264l-.0419-14.3153c0-.4544.3628-.8237.8172-.8329l.757-.0065v-.9547h-4.4226z"></path><path d="m75.7205 28.9314c-.1506-.1519-.2305-.3601-.2213-.5749v-7.0103c0-1.3319-.3929-2.3848-1.1786-3.13-.7858-.7451-1.8479-1.121-3.1784-1.121-1.878 0-3.3526.7596-4.3846 2.2565-.0183.0275-.0524.0419-.0851.0353-.0341-.0052-.0603-.0301-.0681-.0628l-.4846-1.8741h-.8106l-2.0875 1.1944v.6548h.5382c.2187-.0118.4348.0589.6038.199.1558.1585.2357.3772.2187.5985v8.2636c.0209.4191-.3026.7766-.7229.7976-.0249 0-.0498 0-.0734 0h-.5238v.9521h4.7984v-.9521h-.5239c-.4191.0209-.7766-.3025-.7975-.7229 0-.0249 0-.0498 0-.0747v-5.4728c.0065-.7124.1624-1.417.4583-2.0653.2921-.6626.7557-1.2362 1.3424-1.6618.6103-.4361 1.3449-.6627 2.0953-.647.9168 0 1.6069.2894 2.0404.8617s.6548 1.324.6548 2.2185v6.7628c.021.4191-.3025.7766-.7229.7975-.0249 0-.0498 0-.0733 0h-.5239v.9521h4.7984v-.9521h-.5238c-.2148.0092-.423-.0707-.5749-.2226"></path><path d="m119.687 13.291c-1.369-.719-2.896-1.087-4.444-1.0726h-6.286v.9521h.609c.508.0367.912.4413.949.9495v14.0848c-.007.2501-.114.4858-.299.6548-.167.1859-.404.2946-.654.2985h-.609v.9521h6.286c1.548.0144 3.075-.3536 4.445-1.0725 1.338-.7112 2.45-1.7837 3.208-3.0946.786-1.3398 1.189-2.9466 1.189-4.7775 0-1.8308-.393-3.4364-1.189-4.7761-.76-1.3109-1.871-2.3835-3.208-3.0946m1.881 7.8707c0 1.6724-.299 3.0959-.893 4.2314-.593 1.1354-1.38 1.9866-2.345 2.5367-.972.55-2.072.8355-3.189.8276h-1.269c-.25-.0039-.487-.1113-.655-.2972-.185-.169-.292-.4047-.299-.6548v-13.2938c.038-.5082.442-.9115.95-.9482h1.269c1.117-.0078 2.217.2777 3.189.8277.965.55 1.753 1.4026 2.345 2.5354s.893 2.5603.893 4.2313"></path><path d="m138.903 22.1085c-.571-.6627-1.685-1.2271-3.003-1.5283 1.812-.8997 2.732-2.1792 2.732-3.807.013-.8447-.235-1.6724-.709-2.3704-.503-.7098-1.193-1.2664-1.993-1.6082-.938-.3994-1.95-.5959-2.97-.5762h-7.059v.9521h.559c.508.0366.913.4413.95.9494v14.0848c-.006.2501-.113.4872-.299.6548-.166.1873-.405.2947-.655.2986h-.609v.9521h7.661c1.106.0118 2.203-.1873 3.234-.588.924-.351 1.732-.9508 2.336-1.7339.572-.7609.863-1.6907.863-2.7659.022-1.066-.351-2.1019-1.048-2.91m-8.774 6.3516c-.185-.1689-.292-.4047-.298-.6548v-6.3319h3.638c1.278 0 2.27.3313 2.947.9835.678.6522 1.019 1.5152 1.019 2.5524 0 .6299-.154 1.2507-.449 1.8086-.309.5814-.775 1.0647-1.345 1.3947-.596.3549-1.326.5356-2.174.5356h-2.688c-.25-.0039-.488-.1113-.655-.2973m-.284-8.3225v-5.6169c.038-.5081.441-.9115.949-.9481h1.73c1.243 0 2.166.309 2.742.9167.577.6077.87 1.4052.87 2.3651 0 .96-.271 1.7968-.807 2.3914-.535.5945-1.35.8905-2.425.8905h-3.059z"></path><path d="m57.4506 17.9218c-2.098-1.1106-4.6111-1.1106-6.7091 0-1.0005.55-1.8295 1.3659-2.3966 2.3573-1.1786 2.1818-1.1786 4.8088 0 6.9906.5671.9914 1.3961 1.8073 2.3966 2.3573 2.0993 1.1092 4.6098 1.1092 6.7091 0 1.0018-.5487 1.8321-1.3646 2.3979-2.3573 1.1786-2.1818 1.1786-4.8088 0-6.9906-.5671-.9914-1.3974-1.8073-2.3979-2.3573zm.9691 5.8539c0 1.6161-.3929 2.9165-1.1786 3.8646-.7858.9482-1.8335 1.4223-3.1431 1.4223s-2.3678-.4793-3.143-1.4223c-.7753-.9429-1.1787-2.2472-1.1787-3.8646s.3929-2.9178 1.1787-3.8659c.7857-.9482 1.8334-1.421 3.143-1.421s2.3678.478 3.1431 1.421c.7752.9429 1.1786 2.2485 1.1786 3.8659z"></path><path d="m103.671 17.9218c-2.099-1.1106-4.611-1.1106-6.7103 0-1.0005.55-1.8295 1.3659-2.3965 2.3573-1.1787 2.1818-1.1787 4.8088 0 6.9906.567.9914 1.396 1.8073 2.3965 2.3573 2.0993 1.1092 4.6113 1.1092 6.7103 0 1.001-.55 1.831-1.3659 2.397-2.3573 1.178-2.1818 1.178-4.8088 0-6.9906-.567-.9914-1.396-1.8073-2.397-2.3573zm.968 5.8539c0 1.6161-.393 2.9165-1.179 3.8646-.785.9482-1.833 1.4223-3.143 1.4223-1.3093 0-2.3675-.4793-3.1428-1.4223-.7753-.9429-1.1786-2.2472-1.1786-3.8646s.3928-2.9178 1.1786-3.8659c.7858-.9482 1.8335-1.421 3.1428-1.421 1.31 0 2.368.478 3.143 1.421.776.9429 1.179 2.2485 1.179 3.8659z"></path><path d="m85.015 17.0888c-.994-.0118-1.9775.2174-2.8641.6666-.8264.4138-1.527 1.0398-2.0299 1.8151-.4832.7491-.7386 1.6226-.7347 2.5145-.0118.7779.1821 1.5466.5618 2.2263.3693.6456.8801 1.1996 1.4943 1.6186l-1.8675 2.5381c-.3379.4596-.2383 1.1066.2213 1.4444.1768.1297.3916.2004.6116.2004h.5356c-.4989.3261-.9193.7583-1.231 1.2651-.33.5291-.5068 1.138-.5107 1.7614 0 1.1237.4976 2.0509 1.4772 2.7502s2.335 1.0477 4.0454 1.0477c1.1485.0078 2.2905-.1847 3.3722-.5697.973-.334 1.8452-.9128 2.5315-1.6802.6351-.7295.9769-1.6685.9612-2.6363 0-1.0712-.3929-1.8334-1.3096-2.5642-.7858-.6194-2.0155-.9481-3.549-.9481h-5.2384c-.0131 0-.0236-.0066-.0302-.017-.0065-.0105-.0065-.0236 0-.0341l1.3594-1.8334c.3222.1493.66.2619 1.0071.3378.3457.0655.6967.0969 1.0477.0943 1.0241.017 2.039-.2121 2.9571-.6666.8329-.4125 1.5427-1.0385 2.0547-1.8151.4924-.7464.753-1.6213.7491-2.5144 0-.9717-.4662-2.741-1.7522-3.6433 0-.0053.0052-.0092.0104-.0079h.0014l2.8235.3104v-1.2913h-4.5064c-.7072-.2462-1.4497-.3706-2.1988-.3693zm1.5715 8.1942c-.4819.2619-1.0228.3994-1.5715.4007-.8604.0053-1.6881-.33-2.3023-.9324-.6548-.6168-.9809-1.5139-.9809-2.6677 0-1.1537.33-2.0521.9809-2.6689.6142-.6025 1.4419-.9364 2.3023-.9312.5487.0014 1.0896.1389 1.5715.4008.5121.2802.9377.6967 1.2284 1.2022.317.533.478 1.2048.478 1.9971s-.161 1.4642-.478 1.9959c-.2907.5068-.7163.9232-1.2284 1.2022m-3.5569 4.8233h3.5504c.9874 0 1.6134.1912 2.0351.6194.4217.44.6469 1.0333.626 1.6422.0236.9155-.3968 1.7863-1.1289 2.3377-.7583.5945-1.7824.8958-3.0448.8958-1.1053 0-2.0116-.2436-2.6913-.7256-.6796-.4819-1.0136-1.1865-1.0136-2.1084-.0052-.5645.1611-1.1171.4767-1.5846.296-.4571.7085-.8277 1.1957-1.0726"></path><path d="m142.616 29.9478c-.254-.1454-.465-.3576-.607-.6129-.295-.5239-.295-1.1643 0-1.6881.144-.2541.356-.4649.611-.6077.548-.2986 1.21-.2986 1.758 0 .255.1428.467.3536.613.6077.293.5238.293 1.1642 0 1.6881-.146.254-.358.4636-.613.6076-.549.2973-1.209.2973-1.758 0m1.608-.1938c.214-.1218.389-.2999.508-.5147.247-.4649.247-1.0215 0-1.4864-.117-.2161-.294-.3942-.508-.516-.454-.2475-1.004-.2475-1.459 0-.213.1218-.388.2999-.508.516-.245.4649-.245 1.0215 0 1.4864.12.2148.295.3929.508.5147.455.2501 1.005.2501 1.459 0zm-1.44-.4571v-.1152l.023-.0183h.079c.025 0 .05-.0118.067-.0302.018-.017.029-.0419.029-.0667v-1.2154c0-.0248-.011-.0484-.029-.0654-.017-.0184-.042-.0302-.067-.0302h-.079l-.023-.0183v-.1152l.023-.0184h.681c.164-.0078.325.038.46.131.114.0864.178.2252.17.368.002.1205-.046.2357-.131.3195-.089.0917-.207.1493-.334.1637l.158.0459.303.4793c.017.0327.05.0537.087.055h.078l.019.0183v.1153l-.019.0183h-.4l-.028-.0183-.423-.7046h-.101v.4832c0 .0262.011.0498.03.0668.017.0184.042.0302.067.0302h.077l.024.0183v.1152l-.024.0184h-.694zm.655-.8564c.091.0065.18-.0249.247-.0878.063-.0681.094-.1597.088-.2527.004-.0904-.025-.1794-.083-.2502-.056-.0628-.137-.0982-.221-.0943h-.05c-.051.0027-.093.0446-.097.0956v.5894z"></path></g></svg> 