<?xml version="1.0" encoding="UTF-8"?> <svg xmlns="http://www.w3.org/2000/svg" fill="none" height="25" viewBox="0 0 116 25" width="116"><path d="m21.6387 24.7529c-.6543 0-1.2914-.2526-1.7793-.7347l-14.84289-14.8429v13.0119c0 1.3776-1.12498 2.5083-2.50826 2.5083-1.38327 0-2.50825-1.0619-2.50825-2.5083v-19.05581c0-1.01593.614149-1.92855 1.54972-2.318848.93558-.3903 2.0089-.172192 2.73211.545268l14.84287 14.84289v-13.06931c0-1.37754 1.125-2.508258 2.5083-2.508258 1.3832 0 2.5082 1.124978 2.5082 2.508258v19.05581c0 1.3776-1.125 2.5083-2.5082 2.5083m11.6114-24.106807-.6887 1.285697-5.338 9.68861-.6887 1.2226.6887 1.2225 5.338 9.373.7174 1.2857h13.9475l.6888-1.412 3.9833-8.0241 1.7794-3.639h-4.0408l-10.188.0287c-1.3201-.0172-2.5427 1.1824-2.5427 2.5083 0 1.3258 1.2168 2.5255 2.5427 2.5082l6.1415-.0287-1.5038 3.0421h-7.8864l-3.9202-6.8992 3.9489-7.1459h8.403l1.9515 4.0178h5.0509l-3.1798-7.62234-.6887-1.411967zm25.3982-.028699c-1.3201.017219-2.491 1.228296-2.468 2.536956v6.54327h5.0165v-6.54327c.0172-1.33162-1.148-2.554175-2.537-2.536956m8.0356 24.192906c-1.3775 0-2.5082-1.125-2.5082-2.5083v-19.07304c0-1.37753 1.125-2.50825 2.5082-2.50825 1.3833 0 2.5083 1.12498 2.5083 2.50825v13.06934l14.8429-14.84291c.7174-.717462 1.7965-.929831 2.7321-.54527.9356.38456 1.5497 1.30291 1.5497 2.31884v19.13044c0 1.3776-1.125 2.5083-2.5082 2.5083-1.3833 0-2.5083-1.125-2.5083-2.5083v-13.07504l-14.8429 14.84294c-.4707.4706-1.1078.7346-1.7793.7346m40.207-12.0878 7.806-7.77157c.975-.97575.975-2.56565.005-3.54714-.97-.981489-2.565-.975749-3.547-.00574l-7.806 7.78879-7.8057-7.78879c-.9758-.975749-2.5714-.975749-3.5472.00574-.9757.98149-.9757 2.57139.0058 3.54714l7.806 7.77157-7.8003 7.7486c-.9757.9758-.9758 2.5657-.0057 3.5472.4706.4764 1.1077.7461 1.7219.7461.6141 0 1.2799-.241 1.7678-.7347l7.7884-7.7658 7.789 7.7658c.471.4707 1.108.7347 1.768.7347s1.286-.2468 1.722-.7461c.976-.9758.976-2.5657-.006-3.5472l-7.777-7.7486m-48.2481 12.019c-1.3202-.0172-2.4911-1.2283-2.4681-2.537v-10.5037h5.0165v10.4922c.0172 1.3316-1.148 2.5542-2.537 2.537" fill="#fff"></path></svg> 