<?xml version="1.0" encoding="UTF-8"?> <svg xmlns="http://www.w3.org/2000/svg" xmlns:xlink="http://www.w3.org/1999/xlink" fill="none" height="41" viewBox="0 0 118 41" width="118"><clipPath id="a"><path d="m.124023.5h117v40h-117z"></path></clipPath><mask id="b" height="41" maskUnits="userSpaceOnUse" width="47" x="0" y="0"><path d="m46.5923.503662h-46.464859v39.964938h46.464859z" fill="#fff"></path></mask><g clip-path="url(#a)"><g mask="url(#b)"><path d="m44.7645 31.3145c-2.4753 1.2995-15.3212 6.6024-18.0884 8.058-2.7672 1.4555-4.2492 1.4141-6.4134.3758-2.1643-1.0383-15.7877-6.5993-18.25661-7.7841-1.243969-.586-1.878649-1.0861-1.878649-1.5542v-4.717s17.796459-3.8761 20.668359-4.9208c2.8719-1.0446 3.8652-1.0701 6.3055-.1719 2.4404.8981 17.0697 3.548 19.4847 4.4271v4.65c0 .4841-.5554.9555-1.8215 1.6339z" fill="#fff"></path><path d="m44.7642 26.6201c-2.4752 1.2931-15.3212 6.596-18.0884 8.0261-2.7672 1.43-4.2491 1.4173-6.4134.3822s-15.78765-6.5961-18.25656-7.7713c-2.468901-1.1753-2.516502-1.997-.0952-2.9461 2.4213-.9492 16.01296-6.2904 18.88486-7.3414 2.872-1.051 3.8652-1.0733 6.3056-.172 2.4403.9014 15.2323 6.0005 17.6345 6.8891 2.4023.8886 2.5134 1.618.0286 2.9079z" fill="#505968"></path><path d="m44.7645 23.6325c-2.4753 1.2963-15.3212 6.5961-18.0884 8.0261-2.7672 1.4301-4.2365 1.4173-6.4008.3758-2.1642-1.0415-15.8003-6.5706-18.26921-7.7522-1.243969-.5924-1.878649-1.0892-1.878649-1.5606v-4.701s17.796459-3.8889 20.668359-4.9335c2.8719-1.0447 3.8652-1.0734 6.3055-.1625 2.4404.9109 17.0697 3.5353 19.4847 4.4208v4.65c0 .4841-.5554.9682-1.8215 1.6371z" fill="#fff"></path><path d="m44.7645 18.9156c-2.4753 1.2994-15.3212 6.5992-18.0884 8.0293-2.7672 1.43-4.2492 1.4205-6.4134.3822-2.1643-1.0383-15.7877-6.577-18.2566-7.7618-2.468903-1.1848-2.513331-1.9906-.0952-2.9397 2.41813-.9492 16.013-6.3031 18.8849-7.32546 2.8719-1.02237 3.8652-1.08607 6.3055-.19746 2.4404.8886 15.2323 6.03232 17.6346 6.89542 2.4023.8632 2.5133 1.6212.0286 2.9079z" fill="#505968"></path><path d="m44.7645 15.6605c-2.4753 1.2995-15.3212 6.6025-18.0884 8.0293-2.7672 1.4269-4.2365 1.4174-6.4008.3822-2.1642-1.0351-15.8003-6.5801-18.26921-7.7617-1.243969-.5861-1.878649-1.0861-1.878649-1.5575v-4.7169s17.796459-3.87612 20.668359-4.9176c2.8719-1.04149 3.8652-1.07334 6.3055-.17518 2.4404.89816 17.0634 3.54806 19.4783 4.43348v4.65c.0064.4905-.549.9683-1.8151 1.6339z" fill="#fff"></path><path d="m44.7642 10.9497c-2.4752 1.274-15.3212 6.6088-18.0884 8.0261s-4.2491 1.4141-6.4134.3822-15.78765-6.5833-18.25656-7.7618c-2.468901-1.1784-2.516502-1.99693-.0952-2.94605 2.4213-.94912 16.01296-6.29987 18.88486-7.33817 2.872-1.038297 3.8652-1.070147 6.3056-.17199 2.4403.89816 15.2323 6.00367 17.6345 6.88909 2.4023.88542 2.5134 1.62115.0286 2.91102z" fill="#505968"></path></g><path d="m24.0866 4.25179 3.0655-1.00963-.8314 1.99379 3.1195 1.17206-4.0207.42042-.9045 2.17852-1.4534-2.43013-4.649-.42042 3.4717-1.25487-1.0441-1.93009z" fill="#fff"></path><path d="m24.2802 16.9694-7.5146-3.1308 10.7642-1.6594z" fill="#fff"></path><path d="m13.862 7.61841c3.1734 0 5.7534 1.00326 5.7534 2.22948 0 1.22621-2.5863 2.22951-5.7534 2.22951-3.167 0-5.75653-1.0033-5.75653-2.22951 0-1.22622 2.57993-2.22948 5.75653-2.22948z" fill="#fff"></path><path d="m34.2036 7.00366 6.369 2.52568-6.3626 2.52566z" fill="#fff"></path><path d="m34.2036 7.00366.0064 5.05134-.6918.2707-6.3659-2.52564z" fill="#8993a5"></path><g fill="#fff"><path d="m61.3743 13.689c.5493-.6015 1.2244-1.0736 1.977-1.3823.7332-.3155 1.5191-.4895 2.3166-.5128.2852-.026.5728.006.8454.0941s.5248.2305.7413.4187c.1605.1558.2864.3439.3695.5519.0832.208.1216.4313.1128.6552.0032.4503-.17.8838-.4823 1.2071-.1508.1691-.3366.3032-.5443.3928-.2077.0897-.4324.1328-.6584.1264-1.9802.1751-4.7284 2.1562-4.7284 4.8475v6.1088c-.0128.4534-.1982.8847-.5182 1.2052-.3199.3205-.7499.5058-1.2018.5178-.2312.0082-.4613-.0353-.6737-.1272-.2123-.092-.4017-.2302-.5544-.4047-.1608-.1572-.289-.3448-.3773-.5519-.0882-.2072-.1347-.4299-.1368-.6552v-12.7398c.0019-.2254.0484-.4481.1366-.6553s.2166-.3947.3775-.5518c.3767-.2728.8272-.4239 1.2916-.4332.452.0089.883.1929 1.203.5134.32.3206.5041.7529.5138 1.2065z"></path><path d="m82.2264 19.2946c.002.4163-.1508.8183-.4284 1.1275-.3293.3066-.7544.489-1.2027.516h-10.1549c.0959.8095.4884 1.5542 1.1012 2.0893.785.8472 1.859 1.3668 3.0084 1.4555.582.0993 1.1778.0817 1.7531-.0517.5752-.1334 1.1183-.3799 1.598-.7254.1685-.1705.37-.3045.5922-.3938.2221-.0893.4601-.1319.6993-.1253.2055-.0098.4108.0238.6026.0984s.366.1886.5113.3347c.1357.1249.2454.2755.323.4431.0776.1675.1215.3488.1292.5334.0076.1847-.0211.369-.0845.5425-.0634.1734-.1604.3326-.2852.4684-.0254.0287-.0539.0542-.0825.0828-.7493.6962-1.628 1.2374-2.5858 1.5926-.9577.3552-1.9759.5176-2.9962.4777-1.0476.0228-2.0878-.181-3.0499-.5975-.9621-.4166-1.8235-1.0362-2.5258-1.8167-1.4554-1.5428-2.2819-3.5769-2.3166-5.7011-.0219-1.0577.1723-2.1087.5707-3.0882.3984-.9794.9926-1.8665 1.7459-2.6065.6867-.7508 1.5244-1.3466 2.4577-1.748.9333-.4013 1.9409-.5991 2.9561-.5803.9873-.0378 1.9714.1352 2.8871.5074.9158.3723 1.7424.9353 2.4252 1.652 1.4565 1.4006 2.3211 3.3094 2.415 5.3317v.1688zm-7.6479-4.5704c-1.068.0183-2.0948.4167-2.8973 1.1243-.6836.5767-1.1651 1.3581-1.3741 2.2295h9.022c-.2529-.8757-.8001-1.6365-1.5486-2.1531-.9035-.7309-2.0144-1.1557-3.1734-1.2134"></path><path d="m98.3949 26.0212c-.012.4535-.1967.8852-.516 1.2062-.3193.3211-.749.5072-1.2008.5201-.3962-.0159-.777-.1586-1.0865-.4073-.3095-.2488-.5315-.5904-.6335-.975-1.2786.9188-2.8165 1.4031-4.3888 1.3823-1.0269.0116-2.0451-.1891-2.9912-.5897-.9462-.4005-1.8-.9923-2.5083-1.7385-.7416-.7449-1.3228-1.6347-1.7077-2.6143-.3848-.9796-.5651-2.0281-.5296-3.0804-.0137-2.1158.7879-4.1551 2.2373-5.6916.7033-.7593 1.5541-1.366 2.4999-1.7828.9458-.4169 1.9666-.635 2.9996-.6409 1.5429-.0205 3.0504.4648 4.2936 1.3822v-6.0291c-.006-.22679.0371-.45219.1264-.6606.0894-.20841.2227-.39488.3908-.54651.1584-.16374.3478-.29403.557-.38319.2093-.08915.4343-.13538.6616-.13595.226-.00601.4506.0373.6582.12693.2077.08964.3935.22346.5445.39221.1614.15694.2902.34442.379.55161.0888.20718.1358.42997.1383.6555v19.0588zm-7.7273-1.7262c.5717.0118 1.1388-.1057 1.659-.3439.5203-.2382.9804-.5909 1.3462-1.032.8222-.855 1.2816-1.9968 1.2816-3.185s-.4594-2.33-1.2816-3.185c-.3777-.4282-.8398-.7732-1.357-1.0133s-1.0784-.3701-1.6482-.3817c-.5739-.0199-1.1446.0946-1.6668.3345-.5222.24-.9815.5987-1.3416 1.0478-.8221.855-1.2815 1.9968-1.2815 3.185s.4594 2.33 1.2815 3.1849c.3733.4332.8353.7804 1.3545 1.0178.5192.2375 1.0834.3596 1.6539.3581"></path><path d="m103.476 6.96231v.69432c.007.24369-.036.48628-.127.71224-.091.22595-.229.4303-.403.59997-.156.15766-.344.27818-.553.35262-.208.07443-.43.10087-.65.07735-.225.00763-.449-.03433-.656-.12292-.208-.08859-.393-.22166-.543-.38986-.171-.16787-.305-.36948-.394-.59206-.089-.22259-.131-.46131-.124-.70104v-.63699c.001-.22575.048-.44897.137-.65636.088-.20738.218-.39469.381-.55075.155-.16202.341-.29136.547-.38049.206-.08912.428-.13626.652-.13866.226-.00352.451.04155.658.13218.208.09064.393.22475.545.39334.17.15047.305.33649.396.54501.091.20853.136.43451.131.6621m-2.898 5.26479c.156-.1632.342-.2932.549-.3824s.429-.1357.654-.1368c.226-.0075.451.0351.659.1248.208.0898.394.2244.544.3944.163.1682.291.3677.375.5866.085.2189.124.4527.117.6873v12.6157c.013.2287-.028.4573-.119.6671-.092.2099-.232.3949-.408.54-.156.162-.342.2914-.548.3805s-.427.1363-.652.1387c-.226.0064-.45-.0367-.658-.1264-.208-.0896-.394-.2237-.544-.3928-.163-.1561-.293-.3434-.381-.5507-.089-.2074-.136-.4306-.137-.6564v-12.6029c-.006-.2367.037-.472.126-.6913.089-.2192.222-.4176.392-.5827"></path><path d="m115.664 13.4341c.353.2434.599.6125.689 1.0319.069.4386.01.888-.171 1.2931-.247.3504-.614.5957-1.032.688-.447.0829-.909-.0095-1.291-.258-1.203-.7739-2.142-1.2039-2.92-1.2039-.686-.0444-1.365.169-1.904.5988-.342.2611-.514.4331-.514.6051-.024.15.007.3037.086.4332.098.1061.214.1935.343.2579.7.4421 1.497.7076 2.322.774 1.069.1768 2.109.4982 3.091.9555.867.3633 1.591 1.0008 2.063 1.8154.307.4747.516 1.0056.618 1.5621.101.5565.091 1.1276-.029 1.6803-.119.5528-.347 1.0763-.669 1.5403-.322.4641-.733.8596-1.208 1.1637-1.202.8623-2.648 1.3155-4.126 1.293-1.977 0-3.865-.7739-5.671-2.2294-.328-.2904-.542-.6893-.603-1.1243-.029-.3227.036-.647.188-.9328s.385-.5206.668-.6752c.284-.1546.607-.2222.928-.1946.322.0277.629.1494.882.3502.949.9055 2.214 1.4008 3.523 1.3791.761.026 1.511-.1854 2.148-.6051.343-.344.603-.602.603-.8631 0-.2612 0-.344-.086-.43 0-.0892-.174-.258-.431-.344-.785-.4868-1.665-.7976-2.58-.9109-1.021-.1477-2.009-.4709-2.92-.9555-.834-.4085-1.546-1.0316-2.063-1.8059-.338-.6059-.514-1.2896-.51-1.9842-.002-.7005.17-1.3904.499-2.008.33-.6175.807-1.1434 1.389-1.5305 1.164-.7963 2.542-1.2174 3.951-1.2071 1.447.0892 3.008.688 4.725 1.8122"></path></g></g></svg> 